<svg xmlns="http://www.w3.org/2000/svg" width="1600" height="1000" viewBox="0 0 1600 1000">
<defs><linearGradient id="g" x1="0" y1="0" x2="1" y2="1"><stop stop-color="#fff8fb"/><stop offset=".52" stop-color="#fff0f6"/><stop offset="1" stop-color="#f7f1ff"/></linearGradient><radialGradient id="r"><stop stop-color="#ffffff" stop-opacity=".9"/><stop offset="1" stop-color="#ffd5e5" stop-opacity="0"/></radialGradient></defs>
<rect width="1600" height="1000" fill="url(#g)"/><circle cx="1330" cy="140" r="280" fill="url(#r)"/><circle cx="420" cy="920" r="300" fill="url(#r)"/>
<g fill="#f6a8c4" opacity=".28"><circle cx="0" cy="40" r="3"/><circle cx="137" cy="123" r="4"/><circle cx="274" cy="206" r="5"/><circle cx="411" cy="289" r="6"/><circle cx="548" cy="372" r="7"/><circle cx="685" cy="455" r="3"/><circle cx="822" cy="538" r="4"/><circle cx="959" cy="621" r="5"/><circle cx="1096" cy="704" r="6"/><circle cx="1233" cy="787" r="7"/><circle cx="1370" cy="870" r="3"/><circle cx="1507" cy="953" r="4"/><circle cx="44" cy="116" r="5"/><circle cx="181" cy="199" r="6"/><circle cx="318" cy="282" r="7"/><circle cx="455" cy="365" r="3"/><circle cx="592" cy="448" r="4"/><circle cx="729" cy="531" r="5"/><circle cx="866" cy="614" r="6"/><circle cx="1003" cy="697" r="7"/><circle cx="1140" cy="780" r="3"/><circle cx="1277" cy="863" r="4"/><circle cx="1414" cy="946" r="5"/><circle cx="1551" cy="109" r="6"/><circle cx="88" cy="192" r="7"/><circle cx="225" cy="275" r="3"/><circle cx="362" cy="358" r="4"/><circle cx="499" cy="441" r="5"/><circle cx="636" cy="524" r="6"/><circle cx="773" cy="607" r="7"/><circle cx="910" cy="690" r="3"/><circle cx="1047" cy="773" r="4"/><circle cx="1184" cy="856" r="5"/><circle cx="1321" cy="939" r="6"/><circle cx="1458" cy="102" r="7"/></g>
<g fill="#fff" opacity=".8"><circle cx="1470" cy="100" r="5"/><circle cx="1510" cy="130" r="8"/><circle cx="90" cy="810" r="6"/></g>
</svg>