<svg xmlns="http://www.w3.org/2000/svg" width="1600" height="1000" viewBox="0 0 1600 1000">
<defs><linearGradient id="g" x1="0" y1="0" x2="1" y2="1"><stop stop-color="#ffe2ee"/><stop offset=".55" stop-color="#fff7fb"/><stop offset="1" stop-color="#eee8ff"/></linearGradient><filter id="b"><feGaussianBlur stdDeviation="24"/></filter></defs>
<rect width="1600" height="1000" fill="url(#g)"/><circle cx="320" cy="340" r="250" fill="#f8a9c8" opacity=".28" filter="url(#b)"/><circle cx="1300" cy="760" r="300" fill="#c9b8ff" opacity=".22" filter="url(#b)"/>
<g fill="#fff" opacity=".75"><circle cx="80" cy="70" r="4"/><circle cx="229" cy="167" r="5"/><circle cx="378" cy="264" r="6"/><circle cx="527" cy="361" r="7"/><circle cx="676" cy="458" r="8"/><circle cx="825" cy="555" r="9"/><circle cx="974" cy="652" r="10"/><circle cx="1123" cy="749" r="4"/><circle cx="1272" cy="846" r="5"/><circle cx="1421" cy="83" r="6"/><circle cx="1570" cy="180" r="7"/><circle cx="219" cy="277" r="8"/><circle cx="368" cy="374" r="9"/><circle cx="517" cy="471" r="10"/><circle cx="666" cy="568" r="4"/><circle cx="815" cy="665" r="5"/><circle cx="964" cy="762" r="6"/><circle cx="1113" cy="859" r="7"/><circle cx="1262" cy="96" r="8"/><circle cx="1411" cy="193" r="9"/><circle cx="1560" cy="290" r="10"/><circle cx="209" cy="387" r="4"/><circle cx="358" cy="484" r="5"/><circle cx="507" cy="581" r="6"/><circle cx="656" cy="678" r="7"/><circle cx="805" cy="775" r="8"/><circle cx="954" cy="872" r="9"/><circle cx="1103" cy="109" r="10"/></g>
<g fill="#ef84ad" opacity=".22"><path d="M110 170c25-55 93-32 75 16 47-26 87 33 43 62-42 26-91 25-137 1-42-25-22-88 19-79Z"/><path d="M1310 120c20-45 76-28 63 13 39-21 72 27 36 51-34 22-75 20-112 1-34-20-18-71 13-65Z"/></g>
</svg>