<svg xmlns="http://www.w3.org/2000/svg" width="512" height="512" viewBox="0 0 512 512"><defs><linearGradient id="g" x1="0" y1="0" x2="1" y2="1"><stop stop-color="#fff"/><stop offset="1" stop-color="#ffdcea"/></linearGradient></defs><ellipse cx="256" cy="430" rx="145" ry="35" fill="#e889b0" opacity=".18"/><path d="M178 190c-38-74-23-137 14-136 35 2 47 73 41 133M334 190c38-74 23-137-14-136-35 2-47 73-41 133" fill="url(#g)" stroke="#e66e9f" stroke-width="12"/><circle cx="256" cy="284" r="142" fill="url(#g)" stroke="#e66e9f" stroke-width="12"/><ellipse cx="208" cy="277" rx="14" ry="20" fill="#70455d"/><ellipse cx="304" cy="277" rx="14" ry="20" fill="#70455d"/><path d="M245 313c8 8 14 8 22 0M256 313v18" stroke="#70455d" stroke-width="9" stroke-linecap="round" fill="none"/><circle cx="178" cy="310" r="22" fill="#ff9fc2" opacity=".55"/><circle cx="334" cy="310" r="22" fill="#ff9fc2" opacity=".55"/><path d="M256 194c-12-28-42-31-55-10-15-28-58-18-58 20 0 53 113 81 113 81s113-28 113-81c0-38-43-48-58-20-13-21-43-18-55 10Z" fill="#f06f9e" opacity=".12"/></svg>